<svg xmlns="http://www.w3.org/2000/svg" width="30" height="30" viewBox="0 0 30 30">
  <path id="ic_center_focus_weak_24px" d="M6.333,23H3v6.667A3.343,3.343,0,0,0,6.333,33H13V29.667H6.333Zm0-16.667H13V3H6.333A3.343,3.343,0,0,0,3,6.333V13H6.333ZM29.667,3H23V6.333h6.667V13H33V6.333A3.343,3.343,0,0,0,29.667,3Zm0,26.667H23V33h6.667A3.343,3.343,0,0,0,33,29.667V23H29.667ZM18,11.333A6.667,6.667,0,1,0,24.667,18,6.665,6.665,0,0,0,18,11.333Zm0,10A3.333,3.333,0,1,1,21.333,18,3.343,3.343,0,0,1,18,21.333Z" transform="translate(-3 -3)" fill="#cfcdc7"/>
</svg>
