<svg xmlns="http://www.w3.org/2000/svg" width="11.111" height="10" viewBox="0 0 11.111 10">
  <g id="ic_photo_camera_24px" transform="translate(-2 -2)" opacity="0.75">
    <circle id="Ellipse_16" data-name="Ellipse 16" cx="1.778" cy="1.778" r="1.778" transform="translate(5.778 5.778)" fill="#cfcdc7"/>
    <path id="Path_92" data-name="Path 92" d="M5.889,2,4.872,3.111H3.111A1.114,1.114,0,0,0,2,4.222v6.667A1.114,1.114,0,0,0,3.111,12H12a1.114,1.114,0,0,0,1.111-1.111V4.222A1.114,1.114,0,0,0,12,3.111H10.239L9.222,2Zm1.667,8.333a2.778,2.778,0,1,1,2.778-2.778A2.779,2.779,0,0,1,7.556,10.333Z" fill="#cfcdc7"/>
  </g>
</svg>
