<svg xmlns="http://www.w3.org/2000/svg" width="30" height="30" viewBox="0 0 30 30">
  <path id="ic_blur_circular_24px" d="M14,12.5A1.5,1.5,0,1,0,15.5,14,1.5,1.5,0,0,0,14,12.5Zm0,6A1.5,1.5,0,1,0,15.5,20,1.5,1.5,0,0,0,14,18.5ZM9.5,13.25a.75.75,0,1,0,.75.75A.743.743,0,0,0,9.5,13.25ZM14,23.75a.75.75,0,1,0,.75.75A.743.743,0,0,0,14,23.75Zm-4.5-4.5a.75.75,0,1,0,.75.75A.743.743,0,0,0,9.5,19.25Zm4.5-9a.75.75,0,1,0-.75-.75A.743.743,0,0,0,14,10.25Zm6,2.25A1.5,1.5,0,1,0,21.5,14,1.5,1.5,0,0,0,20,12.5Zm0-2.25a.75.75,0,1,0-.75-.75A.743.743,0,0,0,20,10.25Zm4.5,9a.75.75,0,1,0,.75.75A.743.743,0,0,0,24.5,19.25Zm0-6a.75.75,0,1,0,.75.75A.743.743,0,0,0,24.5,13.25ZM17,2A15,15,0,1,0,32,17,15.005,15.005,0,0,0,17,2Zm0,27A12,12,0,1,1,29,17,12,12,0,0,1,17,29Zm3-5.25a.75.75,0,1,0,.75.75A.743.743,0,0,0,20,23.75Zm0-5.25A1.5,1.5,0,1,0,21.5,20,1.5,1.5,0,0,0,20,18.5Z" transform="translate(-2 -2)" fill="#cfcdc7"/>
</svg>
