<svg xmlns="http://www.w3.org/2000/svg" width="10.992" height="10" viewBox="0 0 10.992 10">
  <path id="ic_style_24px" d="M1.945,11.645l.705.295V7.187L1.371,10.271a1.063,1.063,0,0,0,.574,1.374ZM12.208,9.7,9.6,3.4a1.049,1.049,0,0,0-1.368-.568L4.35,4.434a1.052,1.052,0,0,0-.647.947.982.982,0,0,0,.079.421l2.611,6.3a1.051,1.051,0,0,0,.963.647,1.089,1.089,0,0,0,.405-.079l3.874-1.605A1.05,1.05,0,0,0,12.208,9.7ZM4.761,5.908a.526.526,0,1,1,.526-.526A.528.528,0,0,1,4.761,5.908ZM3.708,11.7A1.056,1.056,0,0,0,4.761,12.75h.763L3.708,8.361Z" transform="translate(-1.295 -2.75)" fill="#cfcdc7" opacity="0.75"/>
</svg>
