<svg xmlns="http://www.w3.org/2000/svg" width="30" height="30" viewBox="0 0 30 30">
  <path id="ic_gradient_24px" d="M16.333,13h3.333v3.333H16.333ZM13,16.333h3.333v3.333H13Zm6.667,0H23v3.333H19.667ZM23,13h3.333v3.333H23ZM9.667,13H13v3.333H9.667Zm20-10H6.333A3.343,3.343,0,0,0,3,6.333V29.667A3.343,3.343,0,0,0,6.333,33H29.667A3.343,3.343,0,0,0,33,29.667V6.333A3.343,3.343,0,0,0,29.667,3ZM13,28H9.667V24.667H13Zm6.667,0H16.333V24.667h3.333Zm6.667,0H23V24.667h3.333Zm3.333-11.667H26.333v3.333h3.333V23H26.333V19.667H23V23H19.667V19.667H16.333V23H13V19.667H9.667V23H6.333V19.667H9.667V16.333H6.333v-10H29.667Z" transform="translate(-3 -3)" fill="#cfcdc7"/>
</svg>
