<svg xmlns="http://www.w3.org/2000/svg" width="30" height="30" viewBox="0 0 30 30">
  <path id="ic_av_timer_24px" d="M16.333,26.333A1.667,1.667,0,1,0,18,24.667,1.672,1.672,0,0,0,16.333,26.333ZM16.333,3V9.667h3.333v-3.2A11.66,11.66,0,1,1,6.333,18a11.529,11.529,0,0,1,2.633-7.367L18,19.667l2.35-2.35L9.017,5.983v.033A14.971,14.971,0,1,0,18,3ZM28,18a1.667,1.667,0,1,0-1.667,1.667A1.672,1.672,0,0,0,28,18ZM8,18a1.667,1.667,0,1,0,1.667-1.667A1.672,1.672,0,0,0,8,18Z" transform="translate(-3 -3)" fill="#cfcdc7"/>
</svg>
