<?xml version="1.0" encoding="iso-8859-1"?>
<!-- Generator: Adobe Illustrator 16.0.0, SVG Export Plug-In . SVG Version: 6.00 Build 0)  -->
<!DOCTYPE svg PUBLIC "-//W3C//DTD SVG 1.1//EN" "http://www.w3.org/Graphics/SVG/1.1/DTD/svg11.dtd">
<svg version="1.1" id="Capa_1" xmlns="http://www.w3.org/2000/svg" xmlns:xlink="http://www.w3.org/1999/xlink" x="0px" y="0px"
	 width="560.516px" height="560.516px" viewBox="0 0 560.516 560.516" style="enable-background:new 0 0 560.516 560.516;"
	 xml:space="preserve">
<g>
	<g>
		<g>
			<path d="M391.041,199.935c15.896,0,28.823,12.934,28.823,28.833v108.062l37.684,37.683V228.77
				c0-36.674-29.838-66.518-66.509-66.518H245.293l37.683,37.686H391.04L391.041,199.935L391.041,199.935z"/>
			<path d="M66.506,429.158c-15.897,0-28.823-12.937-28.823-28.831V228.765c0-15.899,12.926-28.833,28.823-28.833h29.963
				L59.494,162.97C26.155,166.521,0,194.505,0,228.768V400.33c0,36.671,29.835,66.513,66.506,66.513h296.854l-37.674-37.684
				L66.506,429.158L66.506,429.158z"/>
			<path d="M65.584,246.542v136.011c0,11.424,9.273,20.697,20.71,20.697h35.612c11.434,0,20.708-9.273,20.708-20.697V246.542
				c0-0.204-0.11-0.37-0.118-0.571l-20.011-20.019c-0.204,0-0.379-0.112-0.581-0.112h-35.61
				C74.857,225.839,65.584,235.113,65.584,246.542z"/>
			<path d="M530.032,213.991l-22.574-8.74c-4.003-1.563-8.501-1.03-12.044,1.399c-3.542,2.412-5.657,6.42-5.657,10.708v189.353
				l17.186,17.206c0.168-0.073,0.352,0,0.517-0.073l22.595-8.742c18.362-7.099,30.462-24.766,30.462-44.45V258.447
				C560.513,238.757,548.405,221.094,530.032,213.991z"/>
			<path d="M74.084,44.326c-11.039-11.041-28.923-11.041-39.963,0c-11.041,11.041-11.041,28.925,0,39.964l431.882,431.9
				c5.521,5.521,12.75,8.28,19.982,8.28c7.229,0,14.461-2.761,19.98-8.28c11.04-11.041,11.04-28.926,0-39.964L74.084,44.326z"/>
		</g>
	</g>
</g>
<g>
</g>
<g>
</g>
<g>
</g>
<g>
</g>
<g>
</g>
<g>
</g>
<g>
</g>
<g>
</g>
<g>
</g>
<g>
</g>
<g>
</g>
<g>
</g>
<g>
</g>
<g>
</g>
<g>
</g>
</svg>
