<?xml version="1.0" encoding="iso-8859-1"?>
<!-- Generator: Adobe Illustrator 19.0.0, SVG Export Plug-In . SVG Version: 6.00 Build 0)  -->
<svg version="1.1" id="Layer_1" xmlns="http://www.w3.org/2000/svg" xmlns:xlink="http://www.w3.org/1999/xlink" x="0px" y="0px"
	 viewBox="0 0 512 512" style="enable-background:new 0 0 512 512;" xml:space="preserve">
<g>
	<g>
		<path d="M486.881,8.551h-59.858c-4.428,0-8.017,3.588-8.017,8.017c0,4.428,3.588,8.017,8.017,8.017h59.858
			c5.01,0,9.086,4.076,9.086,9.086v128.802h-35.273V59.324c0-4.428-3.588-8.017-8.017-8.017c-4.428,0-8.017,3.588-8.017,8.017
			v103.148h-9.62V59.324c0-4.428-3.588-8.017-8.017-8.017c-4.428,0-8.017,3.588-8.017,8.017v103.148h-9.62V59.324
			c0-4.428-3.588-8.017-8.017-8.017c-4.428,0-8.017,3.588-8.017,8.017v103.148h-9.62V59.324c0-4.428-3.588-8.017-8.017-8.017
			c-4.428,0-8.017,3.588-8.017,8.017v103.148h-9.62V59.324c0-4.428-3.588-8.017-8.017-8.017c-4.428,0-8.017,3.588-8.017,8.017
			v103.148h-26.722V59.324c0-4.428-3.588-8.017-8.017-8.017c-4.428,0-8.017,3.588-8.017,8.017v103.148h-9.62V59.324
			c0-4.428-3.588-8.017-8.017-8.017c-4.428,0-8.017,3.588-8.017,8.017v103.148h-9.62V59.324c0-4.428-3.588-8.017-8.017-8.017
			c-4.428,0-8.017,3.588-8.017,8.017v103.148h-9.62V59.324c0-4.428-3.588-8.017-8.017-8.017s-8.017,3.588-8.017,8.017v103.148h-9.62
			V59.324c0-4.428-3.588-8.017-8.017-8.017s-8.017,3.588-8.017,8.017v103.148h-9.62V59.324c0-4.428-3.588-8.017-8.017-8.017
			s-8.017,3.588-8.017,8.017v103.148h-26.722V59.324c0-4.428-3.588-8.017-8.017-8.017c-4.428,0-8.017,3.588-8.017,8.017v103.148
			h-9.62V59.324c0-4.428-3.588-8.017-8.017-8.017s-8.017,3.588-8.017,8.017v103.148h-9.62V59.324c0-4.428-3.588-8.017-8.017-8.017
			c-4.428,0-8.017,3.588-8.017,8.017v103.148h-9.62V59.324c0-4.428-3.588-8.017-8.017-8.017c-4.428,0-8.017,3.588-8.017,8.017
			v103.148H16.033V33.67c0-5.01,4.076-9.086,9.086-9.086h367.699c4.428,0,8.017-3.588,8.017-8.017c0-4.428-3.588-8.017-8.017-8.017
			H25.119C11.268,8.551,0,19.819,0,33.67v324.944c0,4.428,3.588,8.017,8.017,8.017c4.428,0,8.017-3.588,8.017-8.017V212.71h35.273
			v239.967c0,4.428,3.588,8.017,8.017,8.017c4.428,0,8.017-3.588,8.017-8.017V212.71h9.62v171.557c0,4.428,3.588,8.017,8.017,8.017
			c4.428,0,8.017-3.588,8.017-8.017V212.71h9.62v171.557c0,4.428,3.588,8.017,8.017,8.017s8.017-3.588,8.017-8.017V212.71h9.62
			v171.557c0,4.428,3.588,8.017,8.017,8.017s8.017-3.588,8.017-8.017V212.71h26.722v171.557c0,4.428,3.588,8.017,8.017,8.017
			s8.017-3.588,8.017-8.017V212.71h9.62v171.557c0,4.428,3.588,8.017,8.017,8.017s8.017-3.588,8.017-8.017V212.71h9.62v171.557
			c0,4.428,3.588,8.017,8.017,8.017s8.017-3.588,8.017-8.017V212.71h9.62v171.557c0,4.428,3.588,8.017,8.017,8.017
			c4.428,0,8.017-3.588,8.017-8.017V212.71h9.62v171.557c0,4.428,3.588,8.017,8.017,8.017c4.428,0,8.017-3.588,8.017-8.017V212.71
			h9.62v171.557c0,4.428,3.588,8.017,8.017,8.017c4.428,0,8.017-3.588,8.017-8.017V212.71h26.722v171.557
			c0,4.428,3.588,8.017,8.017,8.017c4.428,0,8.017-3.588,8.017-8.017V212.71h9.62v171.557c0,4.428,3.588,8.017,8.017,8.017
			c4.428,0,8.017-3.588,8.017-8.017V212.71h9.62v171.557c0,4.428,3.588,8.017,8.017,8.017c4.428,0,8.017-3.588,8.017-8.017V212.71
			h9.62v171.557c0,4.428,3.588,8.017,8.017,8.017c4.428,0,8.017-3.588,8.017-8.017V212.71h9.62v239.967
			c0,4.428,3.588,8.017,8.017,8.017c4.428,0,8.017-3.588,8.017-8.017V212.71h35.273v265.62c0,5.01-4.076,9.086-9.086,9.086H25.119
			c-5.01,0-9.086-4.076-9.086-9.086v-85.511c0-4.428-3.588-8.017-8.017-8.017c-4.428,0-8.017,3.588-8.017,8.017v85.511
			c0,13.851,11.268,25.119,25.119,25.119h461.762c13.851,0,25.119-11.268,25.119-25.119V33.67
			C512,19.819,500.732,8.551,486.881,8.551z M495.967,196.676H16.033v-18.171h479.933V196.676z"/>
	</g>
</g>
<g>
	<g>
		<path d="M119.182,401.904H84.977c-4.428,0-8.017,3.588-8.017,8.017v42.756c0,4.428,3.588,8.017,8.017,8.017h34.205
			c4.428,0,8.017-3.588,8.017-8.017v-42.756C127.198,405.492,123.61,401.904,119.182,401.904z M111.165,444.66H92.994v-26.722
			h18.171V444.66z"/>
	</g>
</g>
<g>
	<g>
		<path d="M179.04,401.904h-34.205c-4.428,0-8.017,3.588-8.017,8.017v42.756c0,4.428,3.588,8.017,8.017,8.017h34.205
			c4.428,0,8.017-3.588,8.017-8.017v-42.756C187.056,405.492,183.468,401.904,179.04,401.904z M171.023,444.66h-18.171v-26.722
			h18.171V444.66z"/>
	</g>
</g>
<g>
	<g>
		<path d="M221.795,401.904c-4.428,0-8.017,3.588-8.017,8.017v42.756c0,4.428,3.588,8.017,8.017,8.017s8.017-3.588,8.017-8.017
			v-42.756C229.812,405.492,226.224,401.904,221.795,401.904z"/>
	</g>
</g>
<g>
	<g>
		<path d="M290.205,401.904H256c-4.428,0-8.017,3.588-8.017,8.017v42.756c0,4.428,3.588,8.017,8.017,8.017h34.205
			c4.428,0,8.017-3.588,8.017-8.017v-42.756C298.221,405.492,294.633,401.904,290.205,401.904z M282.188,444.66h-18.171v-26.722
			h18.171V444.66z"/>
	</g>
</g>
<g>
	<g>
		<path d="M324.409,401.904c-4.428,0-8.017,3.588-8.017,8.017v42.756c0,4.428,3.588,8.017,8.017,8.017
			c4.428,0,8.017-3.588,8.017-8.017v-42.756C332.426,405.492,328.838,401.904,324.409,401.904z"/>
	</g>
</g>
<g>
	<g>
		<path d="M358.614,401.904c-4.428,0-8.017,3.588-8.017,8.017v42.756c0,4.428,3.588,8.017,8.017,8.017
			c4.428,0,8.017-3.588,8.017-8.017v-42.756C366.63,405.492,363.042,401.904,358.614,401.904z"/>
	</g>
</g>
<g>
	<g>
		<path d="M427.023,401.904h-34.205c-4.428,0-8.017,3.588-8.017,8.017v42.756c0,4.428,3.588,8.017,8.017,8.017h34.205
			c4.428,0,8.017-3.588,8.017-8.017v-42.756C435.04,405.492,431.451,401.904,427.023,401.904z M419.006,444.66h-18.171v-26.722
			h18.171V444.66z"/>
	</g>
</g>
<g>
</g>
<g>
</g>
<g>
</g>
<g>
</g>
<g>
</g>
<g>
</g>
<g>
</g>
<g>
</g>
<g>
</g>
<g>
</g>
<g>
</g>
<g>
</g>
<g>
</g>
<g>
</g>
<g>
</g>
</svg>
